<?xml version="1.0" encoding="UTF-8"?>
<svg id="Layer_1" xmlns="http://www.w3.org/2000/svg" version="1.1" viewBox="0 0 500 500">
  <!-- Generator: Adobe Illustrator 29.0.1, SVG Export Plug-In . SVG Version: 2.1.0 Build 192)  -->
  <defs>
    <style>
      .st0 {
        fill: #ffc4c4;
      }

      .st1 {
        fill: #962e2a;
      }
    </style>
  </defs>
  <ellipse class="st0" cx="250" cy="250" rx="242.4" ry="244.3"/>
  <g>
    <path class="st1" d="M311.3,297.1c-2,11.6-10.2,47.5-14.7,62.3H115.1v-5c36.4-5,38.5-8.3,38.5-42.1v-175.4c0-33.8-3.7-36.7-35.6-40.9v-5h97.9v5c-30.3,5.4-33.2,7-33.2,40.9v181.2c0,29.3,4.9,30.5,32.3,30.5s20.5-.4,27.4-.4c24.2,0,34-.4,44.6-16.1,7-10.3,12.7-21.1,18.4-36.7l5.7,1.6h0Z"/>
    <path class="st1" d="M320.6,255.7c40.1,6.6,72.9,27.2,72.9,68.5s-14.7,49.5-37.7,63.2c-19.7,11.6-43.4,15.7-67.2,15.7h-92.5v-5c33.2-5.8,35.6-8.7,35.6-41.7v-176.7c0-31.4-4.1-34.3-35.6-40v-5h100.7c29.9,0,46.7,6.6,58.6,15.3,13.1,9.9,21.7,26.4,21.7,44.2,0,38.4-32.3,54.9-56.5,61.5h0ZM283.8,253.2c47.5,0,61-19.4,61-53.2s-13.1-56.6-55.3-56.6-16.4.4-20.1,2.1c-7.4,2.1-8.6,6.6-8.6,22.7v85h22.9ZM260.8,356.4c0,31,10.2,37.6,38.1,37.6s61.4-20.2,61.4-64.8-23.7-67.7-74.9-67.7h-24.6v94.9h0Z"/>
  </g>
  <rect class="st0" x="225.3" y="359.5" width="38.4" height="15.2"/>
  <path class="st0" d="M260,347.5l-28.6.9c-1.3,0-2.3-1.4-2.3-3.1v-12.6h33.2v13.4c0,1.2-1.4,1.3-2.4,1.3h0Z"/>
</svg>